<?xml version="1.0" encoding="UTF-8" standalone="no"?>
<!-- Created with Inkscape (http://www.inkscape.org/) -->

<svg
   xmlns:dc="http://purl.org/dc/elements/1.1/"
   xmlns:cc="http://creativecommons.org/ns#"
   xmlns:rdf="http://www.w3.org/1999/02/22-rdf-syntax-ns#"
   xmlns:svg="http://www.w3.org/2000/svg"
   xmlns="http://www.w3.org/2000/svg"
   xmlns:sodipodi="http://sodipodi.sourceforge.net/DTD/sodipodi-0.dtd"
   xmlns:inkscape="http://www.inkscape.org/namespaces/inkscape"
   width="744.09448819"
   height="1052.3622047"
   id="svg2"
   version="1.1"
   inkscape:version="0.47 r22583"
   sodipodi:docname="drawing2.svg">
  <defs
     id="defs4">
    <inkscape:perspective
       sodipodi:type="inkscape:persp3d"
       inkscape:vp_x="0 : 526.18109 : 1"
       inkscape:vp_y="0 : 1000 : 0"
       inkscape:vp_z="744.09448 : 526.18109 : 1"
       inkscape:persp3d-origin="372.04724 : 350.78739 : 1"
       id="perspective10" />
    <inkscape:perspective
       id="perspective2824"
       inkscape:persp3d-origin="0.5 : 0.33333333 : 1"
       inkscape:vp_z="1 : 0.5 : 1"
       inkscape:vp_y="0 : 1000 : 0"
       inkscape:vp_x="0 : 0.5 : 1"
       sodipodi:type="inkscape:persp3d" />
    <inkscape:perspective
       id="perspective2840"
       inkscape:persp3d-origin="0.5 : 0.33333333 : 1"
       inkscape:vp_z="1 : 0.5 : 1"
       inkscape:vp_y="0 : 1000 : 0"
       inkscape:vp_x="0 : 0.5 : 1"
       sodipodi:type="inkscape:persp3d" />
    <inkscape:perspective
       id="perspective2854"
       inkscape:persp3d-origin="0.5 : 0.33333333 : 1"
       inkscape:vp_z="1 : 0.5 : 1"
       inkscape:vp_y="0 : 1000 : 0"
       inkscape:vp_x="0 : 0.5 : 1"
       sodipodi:type="inkscape:persp3d" />
    <inkscape:perspective
       id="perspective2868"
       inkscape:persp3d-origin="0.5 : 0.33333333 : 1"
       inkscape:vp_z="1 : 0.5 : 1"
       inkscape:vp_y="0 : 1000 : 0"
       inkscape:vp_x="0 : 0.5 : 1"
       sodipodi:type="inkscape:persp3d" />
    <inkscape:perspective
       id="perspective2882"
       inkscape:persp3d-origin="0.5 : 0.33333333 : 1"
       inkscape:vp_z="1 : 0.5 : 1"
       inkscape:vp_y="0 : 1000 : 0"
       inkscape:vp_x="0 : 0.5 : 1"
       sodipodi:type="inkscape:persp3d" />
    <inkscape:perspective
       id="perspective2977"
       inkscape:persp3d-origin="0.5 : 0.33333333 : 1"
       inkscape:vp_z="1 : 0.5 : 1"
       inkscape:vp_y="0 : 1000 : 0"
       inkscape:vp_x="0 : 0.5 : 1"
       sodipodi:type="inkscape:persp3d" />
    <inkscape:perspective
       id="perspective3097"
       inkscape:persp3d-origin="0.5 : 0.33333333 : 1"
       inkscape:vp_z="1 : 0.5 : 1"
       inkscape:vp_y="0 : 1000 : 0"
       inkscape:vp_x="0 : 0.5 : 1"
       sodipodi:type="inkscape:persp3d" />
    <inkscape:perspective
       id="perspective3194"
       inkscape:persp3d-origin="0.5 : 0.33333333 : 1"
       inkscape:vp_z="1 : 0.5 : 1"
       inkscape:vp_y="0 : 1000 : 0"
       inkscape:vp_x="0 : 0.5 : 1"
       sodipodi:type="inkscape:persp3d" />
    <inkscape:perspective
       id="perspective3312"
       inkscape:persp3d-origin="0.5 : 0.33333333 : 1"
       inkscape:vp_z="1 : 0.5 : 1"
       inkscape:vp_y="0 : 1000 : 0"
       inkscape:vp_x="0 : 0.5 : 1"
       sodipodi:type="inkscape:persp3d" />
    <inkscape:perspective
       id="perspective3409"
       inkscape:persp3d-origin="0.5 : 0.33333333 : 1"
       inkscape:vp_z="1 : 0.5 : 1"
       inkscape:vp_y="0 : 1000 : 0"
       inkscape:vp_x="0 : 0.5 : 1"
       sodipodi:type="inkscape:persp3d" />
    <inkscape:perspective
       id="perspective3506"
       inkscape:persp3d-origin="0.5 : 0.33333333 : 1"
       inkscape:vp_z="1 : 0.5 : 1"
       inkscape:vp_y="0 : 1000 : 0"
       inkscape:vp_x="0 : 0.5 : 1"
       sodipodi:type="inkscape:persp3d" />
    <inkscape:perspective
       id="perspective3603"
       inkscape:persp3d-origin="0.5 : 0.33333333 : 1"
       inkscape:vp_z="1 : 0.5 : 1"
       inkscape:vp_y="0 : 1000 : 0"
       inkscape:vp_x="0 : 0.5 : 1"
       sodipodi:type="inkscape:persp3d" />
    <inkscape:perspective
       id="perspective3700"
       inkscape:persp3d-origin="0.5 : 0.33333333 : 1"
       inkscape:vp_z="1 : 0.5 : 1"
       inkscape:vp_y="0 : 1000 : 0"
       inkscape:vp_x="0 : 0.5 : 1"
       sodipodi:type="inkscape:persp3d" />
    <inkscape:perspective
       id="perspective3819"
       inkscape:persp3d-origin="0.5 : 0.33333333 : 1"
       inkscape:vp_z="1 : 0.5 : 1"
       inkscape:vp_y="0 : 1000 : 0"
       inkscape:vp_x="0 : 0.5 : 1"
       sodipodi:type="inkscape:persp3d" />
    <inkscape:perspective
       id="perspective3916"
       inkscape:persp3d-origin="0.5 : 0.33333333 : 1"
       inkscape:vp_z="1 : 0.5 : 1"
       inkscape:vp_y="0 : 1000 : 0"
       inkscape:vp_x="0 : 0.5 : 1"
       sodipodi:type="inkscape:persp3d" />
  </defs>
  <sodipodi:namedview
     id="base"
     pagecolor="#ffffff"
     bordercolor="#666666"
     borderopacity="1.0"
     inkscape:pageopacity="0.0"
     inkscape:pageshadow="2"
     inkscape:zoom="0.41339581"
     inkscape:cx="467.22182"
     inkscape:cy="603.64323"
     inkscape:document-units="px"
     inkscape:current-layer="layer1"
     showgrid="false"
     inkscape:window-width="703"
     inkscape:window-height="744"
     inkscape:window-x="76"
     inkscape:window-y="0"
     inkscape:window-maximized="0" />
  <metadata
     id="metadata7">
    <rdf:RDF>
      <cc:Work
         rdf:about="">
        <dc:format>image/svg+xml</dc:format>
        <dc:type
           rdf:resource="http://purl.org/dc/dcmitype/StillImage" />
        <dc:title></dc:title>
      </cc:Work>
    </rdf:RDF>
  </metadata>
  <g
     inkscape:label="Layer 1"
     inkscape:groupmode="layer"
     id="layer1">
    <path
       style="fill:#583799"
       d="m 542.28017,501.58406 c -2.06964,-2.25951 -4.4552,-6.79188 -6.25272,-11.87964 -2.4876,-7.04098 -2.90261,-9.68572 -2.88026,-18.35513 0.0148,-5.73171 0.49718,-10.7241 1.11121,-11.5 0.59681,-0.75413 1.39856,-2.72115 1.78166,-4.37115 0.38311,-1.65 1.59876,-4.88865 2.70144,-7.197 1.60101,-3.35154 1.77786,-4.62119 0.87792,-6.30274 -2.83475,-5.29678 -0.2126,-15.67116 4.50412,-17.82024 1.54303,-0.70306 2.4875,-2.58548 3.42452,-6.82541 0.71162,-3.22004 1.64767,-6.30461 2.0801,-6.85461 1.63109,-2.07454 3.24935,-16.83615 2.76882,-25.2569 -0.50916,-8.92242 -2.47484,-14.98976 -7.12306,-21.98627 -2.48722,-3.74376 -3.66993,-3.90613 -9.15464,-1.25683 -2.2,1.06268 -4.45,1.95432 -5,1.98143 -0.55,0.0271 -5.725,1.87746 -11.5,4.11189 -5.775,2.23442 -12.975,4.92788 -16,5.98547 -3.025,1.05758 -6.4,2.36557 -7.5,2.90664 -1.1,0.54106 -6.95,2.77129 -13,4.95607 -18.59018,6.71327 -24.9182,9.0663 -27,10.03975 -1.1,0.51436 -6.5,2.56674 -12,4.56084 -5.5,1.9941 -12.7,4.66407 -16,5.93326 -3.3,1.26919 -7.125,2.63653 -8.5,3.03853 -1.375,0.40199 -2.95,1.06628 -3.5,1.47619 -0.55,0.40991 -3.475,1.53938 -6.5,2.50993 -3.025,0.97055 -5.95,2.07404 -6.5,2.45219 -0.55,0.37816 -2.87334,1.27771 -5.16297,1.99902 -3.74676,1.18034 -4.59658,1.10682 -8.5,-0.73544 -7.40221,-3.49354 -17.0163,-7.83343 -24.83703,-11.21167 -7.72311,-3.33607 -11.73246,-5.14814 -25.5,-11.52506 -4.4,-2.03801 -14.975,-6.84312 -23.5,-10.67801 -8.525,-3.8349 -17.3,-7.79528 -19.5,-8.80085 -2.2,-1.00557 -6.25,-2.82688 -9,-4.04737 -2.75,-1.22048 -8.375,-3.77267 -12.5,-5.67152 -10.2581,-4.72209 -14.33871,-6.58671 -22.5,-10.28129 -3.85,-1.74288 -8.8,-3.9922 -11,-4.9985 -2.2,-1.00629 -6.25,-2.80697 -9,-4.0015 -4.9659,-2.15706 -7.02041,-3.08584 -19.5,-8.81534 -3.575,-1.64132 -9.65,-4.42254 -13.5,-6.18048 -3.85,-1.75795 -9.25,-4.23532 -12,-5.50528 -11.50281,-5.31201 -16.61494,-7.4989 -17.52964,-7.4989 -0.5337,0 -0.97036,-0.43266 -0.97036,-0.96146 0,-0.94778 1.65854,-1.4968 13.5,-4.46879 3.3,-0.82825 10.275,-2.61873 15.5,-3.97887 22.57363,-5.87621 29.99423,-7.76723 38,-9.68372 4.675,-1.11914 9.4,-2.41647 10.5,-2.88297 1.1,-0.46649 10.325,-2.97024 20.5,-5.56388 26.12301,-6.65884 35.63566,-9.10306 46.50276,-11.9486 21.34017,-5.58791 29.45022,-7.69704 38.49724,-10.01171 5.225,-1.33681 14,-3.608 19.5,-5.04708 5.5,-1.43909 12.99541,-3.32226 16.65646,-4.18483 l 6.65647,-1.5683 7.84353,3.15548 c 4.31395,1.73552 8.22553,3.15306 8.69241,3.15011 0.46688,-0.003 2.26688,0.64289 4,1.43522 1.73312,0.79233 8.10113,3.30817 14.15113,5.59077 6.05,2.28259 11.9,4.53827 13,5.01262 5.53358,2.38623 33.17564,12.95601 33.88253,12.95601 0.44837,0 2.23322,0.64938 3.96634,1.44306 4.17065,1.90994 21.43763,8.55694 22.22847,8.55694 0.34122,0 2.03841,0.64827 3.77153,1.4406 1.73312,0.79233 8.10113,3.31557 14.15113,5.6072 6.05,2.29163 12.35,4.74331 14,5.44817 1.65,0.70486 4.125,1.60667 5.5,2.00403 1.375,0.39736 3.85,1.32179 5.5,2.05429 4.46175,1.98076 21.36133,8.44571 22.07734,8.44571 0.34122,0 2.03841,0.64938 3.77153,1.44306 4.04567,1.85271 21.42685,8.55694 22.18446,8.55694 0.51633,0 4.08037,1.47806 11.46667,4.75538 1.83297,0.8133 2.02946,1.12732 0.73643,1.17694 -0.96996,0.0372 -2.54496,0.5088 -3.5,1.04795 -2.00058,1.12939 -19.88323,8.01973 -20.81377,8.01973 -0.34122,0 -2.03841,0.61832 -3.77153,1.37404 -1.73312,0.75572 -7.09273,2.84669 -11.91024,4.6466 l -8.75911,3.27256 2.4735,4.2207 c 1.36042,2.32138 3.49882,6.86791 4.75199,10.1034 4.3235,11.16252 2.77349,29.27954 -4.35965,50.95691 l -1.99877,6.07421 2.20096,4.22264 c 2.85759,5.48241 2.23884,11.17444 -1.65671,15.24052 -1.52201,1.58863 -3.41727,2.88842 -4.2117,2.88842 -1.17227,0 -1.35043,1.36598 -0.94557,7.25 0.90654,13.1751 8.35839,31.5525 15.2466,37.60043 2.49921,2.19433 3.09048,3.24961 2.21377,3.95108 -2.67798,2.14268 -16.47876,7.52782 -20.44258,7.97679 -3.88207,0.43972 -4.53347,0.16756 -7.59273,-3.17238 z M 373.94459,483.28793 C 349.19226,445.78292 313.82703,425.88478 271.37526,425.57759 l -13.74402,-0.0994 0.0267,-6 c 0.0431,-9.6838 4.55253,-35.89524 6.93642,-40.31904 0.49821,-0.92453 1.66875,-3.81846 2.60121,-6.43096 0.93246,-2.6125 1.87802,-4.75 2.10123,-4.75 0.22321,0 3.42458,1.388 7.11414,3.08443 3.68957,1.69644 8.5083,3.90845 10.7083,4.91557 2.2,1.00712 7.15,3.27846 11,5.04741 8.81104,4.04841 21.37545,9.78227 24,10.95259 1.1,0.4905 5.49737,2.49116 9.77193,4.44591 4.27457,1.95475 7.95052,3.55409 8.1688,3.55409 0.21827,0 4.5959,1.9639 9.72806,4.36422 5.13217,2.40033 12.03121,5.5908 15.33121,7.08994 8.68249,3.94433 13.12847,5.97607 20.89011,9.54641 5.47668,2.51926 7.63065,3.03108 10.5,2.49495 1.98544,-0.37097 4.05989,-1.02468 4.60989,-1.45269 0.55,-0.42801 3.475,-1.57228 6.5,-2.54283 3.025,-0.97055 5.95,-2.09645 6.5,-2.50199 0.55,-0.40555 2.8,-1.29915 5,-1.98577 2.2,-0.68663 5.35,-1.83705 7,-2.5565 2.68719,-1.17169 13.62475,-5.255 32.5,-12.13317 3.575,-1.30274 7.4,-2.80788 8.5,-3.34476 1.1,-0.53687 4.475,-1.84707 7.5,-2.91154 3.025,-1.06447 8.65,-3.11368 12.5,-4.5538 3.85,-1.44013 9.7,-3.55757 13,-4.70542 3.3,-1.14786 6.53112,-2.50308 7.18026,-3.0116 5.05912,-3.96317 9.05743,40.08538 5.44634,60.0011 l -1.32301,7.29654 -4.65179,-0.68284 c -2.55849,-0.37556 -5.7768,-1.13073 -7.1518,-1.67814 -3.60769,-1.43628 -33.34032,-2.10961 -41,-0.92849 -7.8885,1.21641 -22.95777,4.94951 -24.43156,6.05242 -0.58764,0.43976 -3.16798,1.57478 -5.73408,2.52225 -3.94831,1.45783 -10.29598,4.73228 -17.68283,9.12171 -6.05784,3.5997 -20.07343,15.32755 -26.66175,22.30979 l -5.01022,5.30979 -5.15425,-7.80979 z"
       id="path3922" />
  </g>
</svg>
